<?xml version="1.0" encoding="UTF-8" standalone="no"?>
<svg width="169px" height="40px" viewBox="0 0 169 40" version="1.1" xmlns="http://www.w3.org/2000/svg" xmlns:xlink="http://www.w3.org/1999/xlink">
    <!-- Generator: Sketch 3.6.1 (26313) - http://www.bohemiancoding.com/sketch -->
    <title>logo</title>
    <desc>Created with Sketch.</desc>
    <defs></defs>
    <g id="following" stroke="none" stroke-width="1" fill="none" fill-rule="evenodd">
        <g id="[1-2]following" transform="translate(-182.000000, -46.000000)">
            <g id="header_following" transform="translate(0.000000, 6.000000)">
                <g id="logo" transform="translate(182.000000, 40.000000)">
                    <path d="M16.7882927,4.5382439 L18.7463415,5.45726829 L20.7141463,4.53336585 L18.7521951,0.976292683 L16.7882927,4.5382439 Z M18.7463415,6.14214634 L13.5873171,3.71873171 L10.4731707,9.3675122 L4.67804878,10.4787317 L5.3502439,15.8670244 L1.02439024,20.4826341 L5.35902439,25.1070244 L4.68487805,30.4972683 L10.4643902,31.6065366 L13.582439,37.2592195 L18.7541463,34.8309268 L23.9131707,37.2562927 L27.0273171,31.6065366 L32.8214634,30.4953171 L32.1521951,25.1070244 L36.475122,20.4884878 L32.1404878,15.8670244 L32.8146341,10.4767805 L27.0370732,9.3675122 L23.9190244,3.71287805 L18.7463415,6.14214634 Z M26.0741463,6.33921951 L27.4380488,8.81434146 L29.72,9.25141463 L30.3346341,4.33921951 L26.0741463,6.33921951 Z M7.77658537,9.25434146 L10.0712195,8.81434146 L11.4341463,6.34409756 L7.16487805,4.33921951 L7.77658537,9.25434146 Z M32.7912195,15.6553171 L34.6497561,17.6387317 L37.4985366,14.5958049 L33.0312195,13.7401951 L32.7912195,15.6553171 Z M0,14.5958049 L2.84682927,17.6338537 L4.7004878,15.6553171 L4.46146341,13.7421463 L0,14.5958049 Z M0,26.3782439 L4.46926829,27.2348293 L4.70926829,25.3187317 L2.84878049,23.3343415 L0,26.3782439 Z M32.8009756,25.3187317 L33.0380488,27.232878 L37.4985366,26.3782439 L34.6536585,23.3411707 L32.8009756,25.3187317 Z M27.4282927,32.1606829 L26.0663415,34.6309268 L30.3346341,36.6358049 L29.7219512,31.7197073 L27.4282927,32.1606829 Z M7.16487805,36.6358049 L11.4273171,34.6348293 L10.0634146,32.1606829 L7.7795122,31.7216585 L7.16487805,36.6358049 Z M16.7843902,36.4406829 L18.7463415,39.9997073 L20.7121951,36.4358049 L18.7541463,35.5158049 L16.7843902,36.4406829 Z" id="Fill-1" fill="#FFE100"></path>
                    <g id="Group-6" transform="translate(12.682927, 0.000000)">
                        <path d="M2.61785366,15.9534634 C2.08712195,15.9534634 1.65590244,15.5212683 1.65590244,14.989561 C1.65590244,14.456878 2.08712195,14.0237073 2.61785366,14.0237073 C3.15053659,14.0237073 3.58273171,14.456878 3.58273171,14.989561 L3.58273171,15.9534634 L2.61785366,15.9534634 Z M12.429561,14.3885854 C12.0978537,14.3885854 11.8285854,14.6578537 11.8285854,14.989561 C11.8285854,15.5212683 11.3973659,15.9534634 10.8666341,15.9534634 L4.78468293,15.9534634 L4.78468293,14.989561 C4.78468293,13.794439 3.81297561,12.8217561 2.61785366,12.8217561 C1.42468293,12.8217561 0.45395122,13.794439 0.45395122,14.989561 C0.45395122,16.1837073 1.42468293,17.1554146 2.61785366,17.1554146 L3.58273171,17.1554146 L3.58273171,20.496878 L2.61785366,20.496878 C2.28614634,20.496878 2.01687805,20.7661463 2.01687805,21.0978537 C2.01687805,21.429561 2.28614634,21.6988293 2.61785366,21.6988293 L3.58273171,21.6988293 L3.58273171,25.034439 C3.58273171,25.5632195 3.15053659,25.9934634 2.61785366,25.9934634 C2.28614634,25.9934634 2.01687805,26.2627317 2.01687805,26.594439 C2.01687805,26.9261463 2.28614634,27.1954146 2.61785366,27.1954146 C3.81297561,27.1954146 4.78468293,26.2256585 4.78468293,25.034439 L4.78468293,21.6988293 L9.92907317,21.6988293 C10.2617561,21.6988293 10.5300488,21.429561 10.5300488,21.0978537 C10.5300488,20.7661463 10.2617561,20.496878 9.92907317,20.496878 L4.78468293,20.496878 L4.78468293,17.1554146 L10.8666341,17.1554146 C12.0598049,17.1554146 13.0305366,16.1837073 13.0305366,14.989561 C13.0305366,14.6578537 12.7612683,14.3885854 12.429561,14.3885854 L12.429561,14.3885854 Z" id="Fill-2" fill="#000000"></path>
                        <path d="M151.542732,8.16839024 C149.715415,8.16839024 148.228585,6.68156098 148.228585,4.8542439 C148.228585,3.02692683 149.715415,1.54009756 151.542732,1.54009756 C153.370049,1.54009756 154.856878,3.02692683 154.856878,4.8542439 C154.856878,6.68156098 153.370049,8.16839024 151.542732,8.16839024 L151.542732,8.16839024 Z M151.542732,0.963512195 C149.393463,0.963512195 147.652,2.70595122 147.652,4.8542439 C147.652,7.0035122 149.393463,8.74497561 151.542732,8.74497561 C153.692,8.74497561 155.433463,7.0035122 155.433463,4.8542439 C155.433463,2.70595122 153.692,0.963512195 151.542732,0.963512195 L151.542732,0.963512195 Z M152.292,4.55278049 C152.15639,4.64839024 151.972,4.69619512 151.738829,4.69619512 L150.589561,4.69619512 L150.589561,3.40741463 L151.80322,3.40741463 C151.972976,3.40741463 152.109561,3.43278049 152.211024,3.4844878 C152.400293,3.58204878 152.495902,3.76546341 152.495902,4.0337561 C152.495902,4.2835122 152.42761,4.45717073 152.292,4.55278049 L152.292,4.55278049 Z M152.993463,6.42497561 C152.974927,6.35473171 152.96322,6.24741463 152.957366,6.104 L152.939805,5.59765854 C152.931024,5.37912195 152.890049,5.22009756 152.814927,5.12253659 C152.74078,5.02497561 152.629561,4.94692683 152.482244,4.88643902 C152.650049,4.79960976 152.78078,4.6835122 152.874439,4.54009756 C152.967122,4.39570732 153.013951,4.21131707 153.013951,3.98497561 C153.013951,3.55180488 152.840293,3.25521951 152.492,3.0942439 C152.308585,3.01034146 152.07639,2.96839024 151.793463,2.96839024 L150.078341,2.96839024 L150.078341,6.74107317 L150.589561,6.74107317 L150.589561,5.12253659 L151.720293,5.12253659 C151.92322,5.12253659 152.071512,5.14595122 152.167122,5.19180488 C152.332976,5.27570732 152.421756,5.44156098 152.433463,5.68741463 L152.464683,6.31668293 C152.471512,6.464 152.480293,6.5635122 152.490049,6.61521951 C152.50078,6.66595122 152.514439,6.70790244 152.531024,6.74107317 L153.158341,6.74107317 L153.158341,6.65619512 C153.079317,6.62204878 153.024683,6.54497561 152.993463,6.42497561 L152.993463,6.42497561 Z M64.5534634,15.4366829 C63.6646829,15.4366829 63.3690732,16.0318049 63.3690732,16.8366829 L63.3690732,32.7254634 C63.3690732,33.5566829 63.7456585,34.126439 64.5534634,34.126439 C65.3602927,34.126439 65.7378537,33.5566829 65.7378537,32.7254634 L65.7378537,16.8366829 C65.7378537,16.0318049 65.4441951,15.4366829 64.5534634,15.4366829 L64.5534634,15.4366829 Z M85.9007805,20.1986341 C83.4207805,20.1986341 81.7007805,22.0308293 81.349561,22.6220488 C81.0012683,22.0581463 79.8939512,20.1986341 77.0422439,20.1986341 C75.3163902,20.1986341 73.7300488,20.7957073 72.8129756,22.4376585 L72.7612683,22.3810732 L72.7612683,21.4376585 C72.7612683,20.7957073 72.3583415,20.3596098 71.7105366,20.3596098 C71.0627317,20.3596098 70.6578537,20.7957073 70.6578537,21.4376585 L70.6578537,32.7254634 C70.6578537,33.5313171 70.9534634,34.126439 71.8422439,34.126439 C72.7349268,34.126439 73.029561,33.5313171 73.029561,32.7254634 L73.029561,26.2366829 C73.029561,24.0786341 74.5622439,22.4103415 76.6393171,22.4103415 C78.9251707,22.4103415 79.7076098,23.8083902 79.7076098,26.2054634 L79.7076098,32.7254634 C79.7076098,33.5313171 80.0100488,34.126439 80.8939512,34.126439 C81.776878,34.126439 82.074439,33.5313171 82.074439,32.7254634 L82.074439,26.2366829 C82.074439,24.0786341 83.6110244,22.4103415 85.6890732,22.4103415 C87.9749268,22.4103415 88.754439,23.8083902 88.754439,26.2054634 L88.754439,32.7254634 C88.754439,33.5313171 89.0480976,34.126439 89.9407805,34.126439 C90.8266341,34.126439 91.1222439,33.5313171 91.1222439,32.7254634 L91.1222439,25.4796098 C91.1222439,22.1683902 89.292,20.1986341 85.9007805,20.1986341 L85.9007805,20.1986341 Z M143.55639,25.1518049 L139.354439,24.4005854 C138.412976,24.2386341 137.418829,24.2152195 137.418829,23.326439 C137.418829,22.6005854 138.039317,22.5713171 138.626634,22.5713171 L144.149561,22.5713171 C144.90078,22.5713171 145.44322,22.2210732 145.44322,21.4669268 C145.44322,20.7137561 144.90078,20.3596098 144.149561,20.3596098 L138.655902,20.3596098 C136.635415,20.3596098 135.047122,21.4952195 135.047122,23.6220488 C135.047122,25.0474146 136.095902,26.0961951 138.254927,26.4483902 L142.50761,27.148878 C143.985659,27.3918049 144.392488,28.2279024 144.392488,29.3274146 C144.392488,30.5157073 143.690049,31.8347317 141.536878,31.8347317 L136.019805,31.8347317 C135.230537,31.8347317 134.724195,32.1830244 134.724195,32.9400976 C134.724195,33.6922927 135.230537,34.0405854 136.019805,34.0405854 L141.697854,34.0405854 C144.688098,34.0405854 146.59639,32.241561 146.59639,29.1459512 C146.59639,27.148878 145.767122,25.561561 143.55639,25.1518049 L143.55639,25.1518049 Z M116.422732,20.1986341 C114.70078,20.1986341 113.541756,20.8483902 113.028585,22.5410732 L112.977854,22.5410732 L112.977854,21.7605854 C112.977854,20.9547317 112.680293,20.3596098 111.791512,20.3596098 C110.903707,20.3596098 110.608098,20.9547317 110.608098,21.7605854 L110.608098,32.7254634 C110.608098,33.5313171 110.903707,34.126439 111.791512,34.126439 C112.680293,34.126439 112.977854,33.5313171 112.977854,32.7254634 L112.977854,25.588878 C112.977854,23.4854634 114.647122,22.4103415 116.614927,22.4103415 C117.471512,22.4103415 117.82761,22.0074146 117.82761,21.2542439 C117.82761,20.4727805 117.313463,20.1986341 116.422732,20.1986341 L116.422732,20.1986341 Z M103.906634,29.1966829 C103.906634,31.5332683 102.589561,32.3703415 100.350537,32.3703415 C98.3339512,32.3703415 97.1729756,31.6444878 97.1729756,30.0279024 C97.1729756,27.4971707 100.812,26.744 103.906634,26.744 L103.906634,29.1966829 Z M102.074439,20.3596098 L97.0939512,20.3596098 C96.3105366,20.3596098 95.8012683,20.7137561 95.8012683,21.4669268 C95.8012683,22.2210732 96.3105366,22.5713171 97.0939512,22.5713171 L101.724195,22.5713171 C103.368098,22.5713171 103.906634,22.9469268 103.906634,24.1059512 L103.906634,24.9118049 C100.430537,25.1313171 94.8051707,25.4503415 94.8051707,30.1352195 C94.8051707,32.6981463 96.9856585,34.2025366 99.9749268,34.2025366 C101.806146,34.2025366 102.665659,33.7176585 104.066634,32.6727805 C104.066634,33.5313171 104.412976,34.0405854 105.169073,34.0405854 C105.928098,34.0405854 106.27639,33.5313171 106.27639,32.6727805 L106.27639,25.2093659 C106.27639,22.8142439 105.628585,20.3596098 102.074439,20.3596098 L102.074439,20.3596098 Z M127.087122,25.3186341 L127.087122,25.2659512 C128.594439,24.7518049 130.776878,23.001561 130.776878,21.2542439 C130.776878,20.6630244 130.372,20.1732683 129.915415,20.1732683 C129.026634,20.1732683 128.833463,20.7957073 127.977854,22.0074146 C127.009073,23.4337561 125.172976,24.4005854 123.398341,24.4005854 L122.830537,24.4005854 L122.830537,16.8366829 C122.830537,16.0318049 122.536878,15.4366829 121.648098,15.4366829 C120.757366,15.4366829 120.459805,16.0318049 120.459805,16.8366829 L120.459805,32.7254634 C120.459805,33.5313171 120.757366,34.126439 121.648098,34.126439 C122.536878,34.126439 122.830537,33.5313171 122.830537,32.7254634 L122.830537,26.1274146 C127.328098,26.744 128.782732,28.1703415 129.430537,32.7469268 C129.532,33.508878 129.645171,34.126439 130.589561,34.126439 C131.368098,34.126439 131.800293,33.7176585 131.800293,32.8561951 C131.800293,29.7869268 130.207122,26.2610732 127.087122,25.3186341 L127.087122,25.3186341 Z M37.0666341,12.3703415 L35.1924878,12.3703415 C34.1622439,12.3703415 33.3241951,11.5303415 33.3241951,10.4981463 C33.3241951,9.46790244 34.1622439,8.62790244 35.1924878,8.62790244 C36.2285854,8.62790244 37.0666341,9.46790244 37.0666341,10.4981463 L37.0666341,12.3703415 Z M52.9193171,9.26107317 C52.229561,9.26107317 51.674439,9.81619512 51.674439,10.4981463 C51.674439,11.5303415 50.8383415,12.3703415 49.8002927,12.3703415 L39.5505366,12.3703415 L39.5505366,10.4981463 C39.5505366,8.10107317 37.594439,6.14595122 35.1924878,6.14595122 C32.7954146,6.14595122 30.8451707,8.10107317 30.8451707,10.4981463 C30.8451707,12.8942439 32.7954146,14.8522927 35.1924878,14.8522927 L37.0666341,14.8522927 L37.0666341,21.406439 L35.1924878,21.406439 C34.5085854,21.406439 33.9554146,21.9654634 33.9554146,22.6493659 C33.9554146,23.3313171 34.5085854,23.8835122 35.1924878,23.8835122 L37.0666341,23.8835122 L37.0666341,30.4737561 C37.0666341,31.5069268 36.2285854,32.3498537 35.1924878,32.3498537 C34.5085854,32.3498537 33.9554146,32.9069268 33.9554146,33.5849756 C33.9554146,34.2747317 34.5085854,34.8279024 35.1924878,34.8279024 C37.594439,34.8279024 39.5505366,32.8776585 39.5505366,30.4737561 L39.5505366,23.8835122 L49.7407805,23.8835122 C50.4276098,23.8835122 50.9846829,23.3313171 50.9846829,22.6493659 C50.9846829,21.9654634 50.4276098,21.406439 49.7407805,21.406439 L39.5505366,21.406439 L39.5505366,14.8522927 L49.8002927,14.8522927 C52.2022439,14.8522927 54.154439,12.8942439 54.154439,10.4981463 C54.154439,9.81619512 53.6012683,9.26107317 52.9193171,9.26107317 L52.9193171,9.26107317 Z M57.2334634,20.2835122 C56.3407805,20.2835122 56.0432195,20.8737561 56.0432195,21.6825366 L56.0432195,32.7254634 C56.0432195,33.5313171 56.3407805,34.126439 57.2334634,34.126439 C58.1183415,34.126439 58.4178537,33.5313171 58.4178537,32.7254634 L58.4178537,21.6825366 C58.4178537,20.8737561 58.1183415,20.2835122 57.2334634,20.2835122 L57.2334634,20.2835122 Z M57.2334634,15.6796098 C56.367122,15.6796098 55.9651707,16.4308293 55.9651707,17.2396098 C55.9651707,18.0522927 56.367122,18.7996098 57.2334634,18.7996098 C58.0910244,18.7996098 58.4988293,18.0522927 58.4988293,17.2396098 C58.4988293,16.4308293 58.0910244,15.6796098 57.2334634,15.6796098 L57.2334634,15.6796098 Z M143.957366,10.1547317 C144.364195,9.61814634 144.722244,9.05131707 145.06078,8.46497561 C145.447122,7.78985366 144.941756,7.22302439 144.046146,7.22302439 C143.042244,7.22302439 141.582732,7.24253659 140.856878,7.27278049 C140.22078,7.30204878 140.26078,8.25619512 140.856878,8.23668293 C141.731024,8.21619512 143.102732,8.16741463 143.728098,8.17717073 C143.94761,8.17717073 143.98761,8.33619512 143.897854,8.50497561 C143.112488,9.98497561 141.542732,11.5752195 139.733951,12.201561 C138.988585,12.4600976 139.326146,13.4337561 140.052,13.1654634 C141.412976,12.6483902 142.486146,11.8435122 143.360293,10.8698537 C144.175902,11.3566829 145.199317,12.2610732 145.686146,12.8669268 C146.153463,13.4532683 146.898829,12.6786341 146.501756,12.121561 C146.044195,11.4854634 144.781756,10.6513171 143.957366,10.1547317 L143.957366,10.1547317 Z M123.372,10.0649756 L129.612976,10.0649756 C129.951512,10.0649756 130.120293,9.81619512 130.120293,9.57814634 C130.120293,9.32936585 129.951512,9.08156098 129.612976,9.08156098 L123.372,9.08156098 C123.034439,9.08156098 122.845171,9.33912195 122.845171,9.58790244 C122.845171,9.82595122 123.014927,10.0649756 123.372,10.0649756 L123.372,10.0649756 Z M138.270537,8.18692683 C138.638341,7.48156098 137.972976,6.94497561 137.207122,6.984 C136.810049,7.0044878 136.32322,7.0435122 135.895902,7.0737561 L135.965171,6.9742439 C136.432488,6.30887805 135.439317,5.83180488 135.110537,6.38790244 C134.653951,7.17326829 133.362244,9.00156098 132.408098,9.58790244 C131.732,10.0054634 132.318341,10.8600976 132.983707,10.4132683 C133.669561,9.94595122 134.543707,8.90204878 135.219805,8.00839024 C135.666634,7.95863415 136.392488,7.88839024 136.810049,7.87863415 C137.048098,7.86887805 137.128098,8.05717073 137.048098,8.24643902 C136.313463,9.93619512 134.673463,11.9235122 132.46761,12.6883902 C131.642244,12.9771707 132.050049,13.9498537 132.894927,13.6220488 C135.687122,12.5196098 137.057854,10.5020488 138.270537,8.18692683 L138.270537,8.18692683 Z M97.3583415,12.2805854 C98.0637073,11.8532683 98.6393171,11.4161951 99.1866341,10.9098537 C99.176878,11.7342439 99.1466341,12.7879024 99.136878,13.3244878 C99.136878,13.6718049 99.3759024,13.841561 99.6139512,13.8308293 C99.8529756,13.8210732 100.070537,13.6327805 100.06078,13.304 C100.041268,12.588878 100.06078,10.7410732 100.080293,9.97521951 C100.388585,9.61814634 100.696878,9.22985366 101.014927,8.80253659 C101.392488,8.28643902 100.607122,7.73034146 100.229561,8.32546341 C99.4159024,9.60741463 98.0539512,10.9293659 96.732,11.5752195 C96.4432195,11.7147317 96.4041951,12.0230244 96.5437073,12.2210732 C96.6929756,12.4298537 97.0002927,12.5000976 97.3583415,12.2805854 L97.3583415,12.2805854 Z M93.9173659,7.0835122 C92.6559024,7.064 90.7973659,7.0737561 89.4861463,7.13326829 C88.7798049,7.1635122 88.8500488,8.13717073 89.5056585,8.11765854 C90.936878,8.06790244 92.5066341,8.00839024 93.4802927,8.03765854 C93.8490732,8.04741463 93.8773659,8.29619512 93.7983415,8.5644878 C93.3515122,10.0249756 92.0500488,11.8337561 89.8539512,12.5293659 C89.0978537,12.7674146 89.4656585,13.8113171 90.3105366,13.4932683 C93.0929756,12.4298537 94.3056585,10.5020488 95.0002927,8.51473171 C95.2900488,7.70009756 94.7232195,7.0942439 93.9173659,7.0835122 L93.9173659,7.0835122 Z M110.745659,8.82302439 C110.170049,9.89619512 109.384683,10.8200976 108.530049,11.3069268 C108.34078,11.4161951 108.221756,11.3966829 108.232488,11.1781463 C108.242244,10.8405854 108.34078,8.21619512 108.351512,7.82887805 C108.361268,7.1137561 107.358341,7.104 107.358341,7.82887805 C107.358341,8.41521951 107.288098,10.7800976 107.218829,11.6747317 C107.148585,12.5293659 107.854927,12.7879024 108.499805,12.4698537 C109.852,11.784 110.965171,10.5518049 111.651024,9.31960976 C111.998341,8.70302439 111.103707,8.15668293 110.745659,8.82302439 L110.745659,8.82302439 Z M120.75639,9.06107317 C121.362244,8.37521951 120.71639,7.62009756 119.821756,7.61034146 C118.172,7.58009756 115.728098,7.63082927 114.168098,7.66009756 C113.36322,7.67960976 113.432488,8.69326829 114.177854,8.664 C115.718341,8.6044878 118.142732,8.5644878 119.384683,8.5742439 C119.68322,8.5742439 119.60322,8.78302439 119.474439,8.91278049 C119.016878,9.36936585 117.993463,10.1547317 117.426634,10.5020488 C117.010049,10.2142439 116.572,9.95570732 116.195415,9.76643902 C115.498829,9.40936585 115.022732,10.264 115.569073,10.5225366 C116.373951,10.9000976 117.55639,11.9235122 117.914439,12.4893659 C118.102732,12.7976585 118.411024,12.8074146 118.639317,12.659122 C118.86761,12.508878 119.007122,12.201561 118.828585,11.864 C118.698829,11.6249756 118.490049,11.3869268 118.242244,11.1479024 C119.126146,10.5722927 120.160293,9.74692683 120.75639,9.06107317 L120.75639,9.06107317 Z M105.549561,8.02790244 C105.638341,9.92546341 104.754439,11.4561951 103.28322,12.1118049 C102.528098,12.4493659 103.074439,13.4035122 103.840293,12.9771707 C105.78761,11.8932683 106.642244,9.82595122 106.572976,7.94887805 C106.552488,7.31278049 105.508585,7.26204878 105.549561,8.02790244 L105.549561,8.02790244 Z" id="Fill-4" fill="#FFFFFF"></path>
                    </g>
                </g>
            </g>
        </g>
    </g>
</svg>